inDegrees=no
num_controls=7
num_derivatives=13
num_iterations=65
num_multipliers=7
num_parameters=0
num_slacks=7
num_states=26
objective=0.312895
objective_accelerations=0.000898
objective_balance=0.001629
objective_effort=0.004946
objective_height=0.299782
objective_ligament=0.005639
solver_duration=696.357364
status=Solve_Succeeded
success=true
DataType=double
version=3
OpenSimVersion=4.5
endheader
time	/jointset/ground_pelvis/pelvis_tilt/value	/jointset/ground_pelvis/pelvis_tx/value	/jointset/ground_pelvis/pelvis_ty/value	/jointset/hip_r/hip_flexion_r/value	/jointset/hip_r/hip_adduction_r/value	/jointset/hip_r/hip_rotation_r/value	/jointset/back/lumbar_extension/value	/jointset/patellofemoral_r/patellar_flexion_r/value	/jointset/knee_r/knee_flexion_r/value	/jointset/knee_r/knee_adduction_r/value	/jointset/knee_r/knee_rotation_r/value	/jointset/ankle_r/ankle_angle_r/value	/jointset/subtalar_r/subtalar_angle_r/value	/jointset/ground_pelvis/pelvis_tilt/speed	/jointset/ground_pelvis/pelvis_tx/speed	/jointset/ground_pelvis/pelvis_ty/speed	/jointset/hip_r/hip_flexion_r/speed	/jointset/hip_r/hip_adduction_r/speed	/jointset/hip_r/hip_rotation_r/speed	/jointset/back/lumbar_extension/speed	/jointset/patellofemoral_r/patellar_flexion_r/speed	/jointset/knee_r/knee_flexion_r/speed	/jointset/knee_r/knee_adduction_r/speed	/jointset/knee_r/knee_rotation_r/speed	/jointset/ankle_r/ankle_angle_r/speed	/jointset/subtalar_r/subtalar_angle_r/speed	/forceset/tau_hip_flexion_r	/forceset/tau_hip_adduction_r	/forceset/tau_hip_rotation_r	/forceset/tau_knee_flexion_r	/forceset/tau_ankle_angle_r	/forceset/tau_subtalar_angle_r	/forceset/tau_lumbar_extension	lambda_cid13_p0	lambda_cid14_p0	lambda_cid14_p1	lambda_cid14_p2	lambda_cid14_p3	lambda_cid14_p4	lambda_cid14_p5	/jointset/ground_pelvis/pelvis_tilt/accel	/jointset/ground_pelvis/pelvis_tx/accel	/jointset/ground_pelvis/pelvis_ty/accel	/jointset/hip_r/hip_flexion_r/accel	/jointset/hip_r/hip_adduction_r/accel	/jointset/hip_r/hip_rotation_r/accel	/jointset/back/lumbar_extension/accel	/jointset/patellofemoral_r/patellar_flexion_r/accel	/jointset/knee_r/knee_flexion_r/accel	/jointset/knee_r/knee_adduction_r/accel	/jointset/knee_r/knee_rotation_r/accel	/jointset/ankle_r/ankle_angle_r/accel	/jointset/subtalar_r/subtalar_angle_r/accel	gamma_cid13_p0	gamma_cid14_p0	gamma_cid14_p1	gamma_cid14_p2	gamma_cid14_p3	gamma_cid14_p4	gamma_cid14_p5
1.5	0.08180768567204141	0.1474309305964529	0.9422907301675153	0.08216825539684698	-0.07804010470213481	-0.01109191527235431	-0.2996343739008904	0.2276545392735114	0.2276545392735115	-0.1608813433182237	-0.1698469227734979	0.1277143967368022	0.267399301554507	0.04520691992443253	-0.0424545607424501	0.007187442504793937	-0.02484071115449848	0.002602288355217672	0.01273475346806981	0.1313034446245505	-0.05090977266615136	-0.05090977266615139	0.00335403537381398	0.001909326845660357	-0.07561262630853424	-0.0332957150732829	0.04994529806161935	0.04521715552843333	0.04147086657010562	-0.1491062621794982	0.01814050323489882	-0.02988663978276076	0.04428716178155163	-28.00639890236135	-44.56277746648712	-26.47733349143459	11.14814333533509	5.878698226156465	-662.7421061028093	33.68239653532367	-0.03991153730834301	-0.09284961015750114	-0.002433361475522154	0.1435116594212196	0.00928617223089496	0.05455973748468173	0.06906305167810023	-0.01917391770432478	-0.01917391770432466	-0.005084403947625916	-0.02720867004629875	-0.1363292446827566	-0.04994042340264463	-9.441261269351723e-11	-3.390089015717808e-10	-1.142911985417902e-09	1.136223098912112e-09	3.048527945494199e-10	1.605729904233661e-10	-2.226255368240854e-09
1.51	0.08225776063488154	0.1470018193733546	0.9423624786288781	0.0819269200308748	-0.07801356366352473	-0.01096166153161117	-0.2983181058973239	0.2271445139621589	0.2271445139621589	-0.1608481597682458	-0.1698294444046554	0.1269515419392714	0.2670639621359164	0.04480414749307968	-0.04336034962246872	0.007161434380152392	-0.02343090380269507	0.00271120723802875	0.01333084046439362	0.1319321663327282	-0.05109111734026152	-0.05109111734026166	0.003272188838472306	0.00156424221819192	-0.07694953834399007	-0.03376080674258033	0.05126339898886413	0.04490038464220827	0.04194461319447165	-0.151144477941517	0.0211102380859927	-0.02956562688281211	0.04323992556018085	-27.99700512163404	-43.59015858357404	-26.36155679847222	11.35120887878954	5.464303380498789	-662.7059153967739	33.87578042005415	-0.04104886919025027	-0.08834337460013958	-0.002806817524200693	0.1390340088818584	0.01248805257535617	0.06436003594332446	0.05707826698611803	-0.01698889710086122	-0.01698889710109965	-0.01130752847354814	-0.04147406265423808	-0.1310530024450919	-0.04308915825624601	-5.041413269278109e-11	-1.783635195862162e-10	-3.567237211558385e-11	4.332716343656427e-10	1.502171436737733e-10	1.488953432995441e-10	-8.343120859370859e-10
1.52	0.08270369011877983	0.1465638702919208	0.9424339425530813	0.08169954648558506	-0.07798577477483269	-0.01082500154985748	-0.296996090369356	0.226632800373098	0.2266328003730979	-0.1608161092336507	-0.1698160800227991	0.1261755818574925	0.2667243126767204	0.04437782413606386	-0.04422213240953119	0.007130535072881492	-0.0220483470180162	0.002851858371602201	0.01401600167017729	0.1324529495048462	-0.05124742820783244	-0.05124742820783262	0.003127432297286212	0.001086529448438622	-0.07823368315816924	-0.03415772319439585	0.05258149991610893	0.0445836137559832	0.04241835981883772	-0.1531826937035355	0.0240799729370866	-0.02924461398286347	0.04219268933881413	-27.98762539373764	-42.61808040642909	-26.24577508997231	11.55415974283642	5.056783462078152	-662.6747122848986	34.07007217961259	-0.04462172244093548	-0.0840483915662705	-0.00341159800139304	0.1380615459960347	0.01563262238336838	0.07237457937665108	0.04747534446613884	-0.01416715639655271	-0.01416715639564655	-0.01766640511650964	-0.05373429850327258	-0.1257758004273715	-0.03630537990625939	-1.331862297243203e-11	-3.54917212714493e-11	1.069234796645572e-09	-2.418276721397031e-10	1.675186133150644e-12	1.405385875922192e-10	4.975145692855412e-10
1.53	0.08314523897616118	0.1461175438211723	0.9425050707478341	0.0814858288628018	-0.07795633800228098	-0.01068125601721121	-0.2956693917973018	0.2261195923445604	0.2261195923445598	-0.160786022979564	-0.16980801698835	0.125387058575082	0.2663811548047029	0.04392886627826855	-0.04503377351332026	0.007094201356258148	-0.02070413912755473	0.003047454458936032	0.01472524157738859	0.1328692813546959	-0.05139639751147918	-0.0513963975114772	0.00286241618031363	0.0005207278037376237	-0.07946071888489056	-0.03445262989028351	0.0539484474193601	0.04420490043591808	0.04292213903549833	-0.1553630397311654	0.02725876811451359	-0.02885114650169591	0.04111584911754578	-27.978288427193	-41.57071662820394	-26.10016170030909	11.76927956584613	4.579987671663602	-662.6315308744622	34.32002509759392	-0.0454949436436445	-0.07831377904696343	-0.003879610077767814	0.1312562110165382	0.02331692199153846	0.06901894373162293	0.03608957254661611	-0.01559482559310975	-0.01559482559335071	-0.03502927087351973	-0.05880577781966684	-0.1196294081242942	-0.02289983465408226	1.644248082500579e-11	8.849564439309522e-11	2.171663743081742e-09	-8.873340607263559e-10	-1.40392222239009e-10	1.357102790149225e-10	1.765467308234458e-09
1.54	0.08358220582972557	0.1456633825775336	0.9425758085351035	0.08128528447901223	-0.07792458650483922	-0.01053065403602534	-0.2943390544132884	0.2256048280213374	0.2256048280213364	-0.1607594088978241	-0.169805772506421	0.1245865725455384	0.2660356845616815	0.04346142337268024	-0.04578908698757757	0.007052453576236151	-0.01941369921927978	0.003314803349609121	0.01538729137809595	0.133180711896696	-0.05155868714490089	-0.05155868714490126	0.002432997827914403	-7.718105560045735e-05	-0.08062623258480131	-0.03462019739513374	0.05531539492261126	0.04382618711585295	0.04342591825215899	-0.1575433857587953	0.03043756329194058	-0.02845767902052836	0.04003900889627743	-27.96901419153042	-40.52409349768132	-25.95480555351514	11.98458609819218	4.109498958669353	-662.5950310695938	34.56972308715698	-0.04831873199957338	-0.07278286565991668	-0.004494410681123941	0.1273079495587368	0.02998318305255469	0.06293655807586021	0.02649508289622116	-0.01683122235154373	-0.01683122235154127	-0.05054685220095444	-0.06015574142978089	-0.1134713950650745	-0.01083754169877696	6.776756581186212e-11	2.695520229593918e-10	3.406508899335716e-09	-1.625455551772491e-09	-3.151709505858562e-10	1.257143854633848e-10	3.261969092180647e-09
1.55	0.08401437915229734	0.1452019627453852	0.9426461004325456	0.08109738771831901	-0.07788980922329705	-0.01037370936974993	-0.293006125603811	0.2250883620061291	0.2250883620061292	-0.1607379022375559	-0.1698096224560632	0.1237747511288226	0.2656891718101657	0.04296864635563954	-0.04648417269668521	0.007005083666789244	-0.01817506278500561	0.003650156831025367	0.01598877986489146	0.1333863761906252	-0.05173887529057421	-0.05173887529057435	0.001845613678411205	-0.0006914603961323956	-0.08172667037179104	-0.03466390889559372	0.05677013420972632	0.04336324825475777	0.04397378438134513	-0.1599132861728201	0.03386561169896057	-0.02797921446237335	0.03890235057731495	-27.95981668172035	-39.38962700955297	-25.77557674837121	12.21553511598432	3.567460870110001	-662.5596225444521	34.88348585224219	-0.05044630475409939	-0.06626554085873591	-0.004984597704591434	0.1207301229896029	0.03673695478660172	0.05682511721841516	0.01480103141639042	-0.01926655699692738	-0.01926655699710907	-0.06624179387954809	-0.06186230496679906	-0.1066230763782543	0.00162915237752018	1.439381073865254e-10	5.163618294342254e-10	4.793920558205845e-09	-2.470285747826285e-09	-5.276388084687544e-10	1.097645353110917e-10	5.02179912362368e-09
1.56	0.08444148688105914	0.1447339132326812	0.9427158933675676	0.08092159504849412	-0.07785139330212067	-0.01021113579395902	-0.2916717003656392	0.2245699633201996	0.2245699633202008	-0.1607229509382936	-0.1698195748540312	0.1229522667130644	0.2653427753649646	0.0424483046106873	-0.04711502309869478	0.006952661092217527	-0.01699288104561912	0.004042531276456244	0.01651307328119692	0.1334799976355595	-0.05194522128912575	-0.05194522128912574	0.001121925626726165	-0.001297670720740256	-0.0827588323932756	-0.03459693613216857	0.0582248734968414	0.04290030939366258	0.04452165051053131	-0.1622831865868469	0.03729366010598056	-0.02750074990421836	0.03776569225835528	-27.95070367585057	-38.25614242767996	-25.59685950217484	12.4469536299627	3.031100528224888	-662.5332162180549	35.19575906913364	-0.05383167758188334	-0.05993580424030169	-0.00550494370608585	0.1160170105810459	0.04138737585548103	0.0474975439778542	0.004086513097243271	-0.022062792928208	-0.02206279292736443	-0.07780763263732277	-0.05854193824496552	-0.09981624196419087	0.01129931107824687	2.073159842284101e-10	7.313194248901408e-10	6.061325478956615e-09	-3.225666724115206e-09	-7.176997154676311e-10	1.225601845229628e-10	6.562903514690468e-09
1.57	0.08486319172936718	0.1442598824667707	0.9427851286112067	0.08075745988131301	-0.07780884823388548	-0.01004345624108611	-0.2903368686962609	0.2240495308088315	0.2240495308088321	-0.1607157268423502	-0.1698357352714696	0.1221198625222657	0.2649975195384481	0.04188243347555175	-0.04767980727051366	0.006892808510853955	-0.0158323183988595	0.004466807781566464	0.01703343121832747	0.1334700209570266	-0.05212989634165427	-0.05212989634165236	0.0003216500240817571	-0.001949398473799095	-0.08370441634469987	-0.03444551124492939	0.05975855731251	0.0423464855143958	0.04511204511338981	-0.1648124055140672	0.04093208788797677	-0.02693780972780554	0.03657317109552149	-27.94168247289542	-37.04645102307325	-25.3839934666916	12.69106923224387	2.43102693419445	-662.4972092460977	35.57026188712561	-0.05949942401423903	-0.05305149632932627	-0.006462244194894398	0.1163511541849672	0.042996490174866	0.05589318088834885	-0.005987050792076616	-0.01496222138670726	-0.01496222138695285	-0.08132339123983687	-0.07073683991460514	-0.08929127192738662	0.01837246078707878	2.547030301543219e-10	9.064617565724093e-10	7.178721977058185e-09	-3.869236175698036e-09	-8.79751933861481e-10	1.712877079400388e-10	7.830600855286953e-09
1.58	0.08527893094781691	0.1437805435046066	0.9428537179632633	0.08060498539309181	-0.07776205066013193	-0.009870255456380308	-0.2890026262521602	0.2235275930749439	0.2235275930749438	-0.1607165426758655	-0.1698588626956542	0.1212785301319137	0.2646540396374522	0.04125517863902217	-0.04817666234939785	0.006823482775753716	-0.01466074525363798	0.004893032380119635	0.01761731964777556	0.1333621525800244	-0.05224626579304419	-0.05224626579304462	-0.0004860602650317153	-0.002691072069983525	-0.08454447230395817	-0.03424175102807719	0.06129224112817861	0.04179266163512901	0.04570243971624836	-0.1673416244412874	0.04457051566997298	-0.02637486955139274	0.03538064993268772	-27.93277889968151	-35.83787125144961	-25.17186959817845	12.93592855742302	1.835749069044792	-662.471228921829	35.94231583076611	-0.06610841786069725	-0.04634998565336072	-0.007399574453419356	0.1182191102734269	0.04177699454407123	0.06020364244136232	-0.0154918265965994	-0.008401672700490442	-0.008401672700490484	-0.07929456993069385	-0.07653110686959275	-0.07871064353103689	0.02176637700085147	3.170534018068321e-10	1.10166968866402e-09	8.221304529754654e-09	-4.432819303578022e-09	-1.035573904537347e-09	2.024439865036598e-10	9.012714274788376e-09
